<?xml version="1.0" encoding="UTF-8"?>
<svg width="16px" height="16px" viewBox="0 0 16 16" version="1.1" xmlns="http://www.w3.org/2000/svg" xmlns:xlink="http://www.w3.org/1999/xlink">
    <title>icon/profile</title>
    <g id="icon/profile" stroke="none" stroke-width="1" fill="none" fill-rule="evenodd">
        <path d="M8.0952381,7.61904762 C8.90361905,7.61904762 9.67847619,7.29828571 10.2499048,6.72609524 C10.8213333,6.15466667 11.1428571,5.37980952 11.1428571,4.57142857 C11.1428571,3.76304762 10.8213333,2.98742857 10.2499048,2.416 C9.67847619,1.84457143 8.90361905,1.52380952 8.0952381,1.52380952 C7.28685714,1.52380952 6.512,1.84457143 5.93980952,2.416 C5.36838095,2.98742857 5.04761905,3.76304762 5.04761905,4.57142857 C5.04761905,5.37980952 5.36838095,6.15466667 5.93980952,6.72609524 C6.512,7.29828571 7.28685714,7.61904762 8.0952381,7.61904762 L8.0952381,7.61904762 Z M8.0952381,9.14285714 C7.49485714,9.14285714 6.90057143,9.0247619 6.34590476,8.79466667 C5.7912381,8.56533333 5.28685714,8.22857143 4.86247619,7.80342857 C4.43809524,7.37980952 4.10133333,6.87542857 3.872,6.3207619 C3.64190476,5.76609524 3.52380952,5.17180952 3.52380952,4.57142857 C3.52380952,3.97104762 3.64190476,3.3767619 3.872,2.82209524 C4.10133333,2.26742857 4.43809524,1.76304762 4.86247619,1.33866667 C5.28685714,0.914285714 5.7912381,0.57752381 6.34590476,0.348190476 C6.90057143,0.118095238 7.49485714,0 8.0952381,0 C9.30742857,0 10.4700952,0.48152381 11.3272381,1.33866667 C12.1851429,2.19580952 12.6666667,3.3592381 12.6666667,4.57142857 C12.6666667,5.78361905 12.1851429,6.94628571 11.3272381,7.80342857 C10.4700952,8.66133333 9.30742857,9.14285714 8.0952381,9.14285714 L8.0952381,9.14285714 Z M14.1904762,16 L12.6666667,16 L12.6666667,14.4761905 C12.6666667,13.8697143 12.4259048,13.288381 11.9969524,12.8601905 C11.5687619,12.4304762 10.9874286,12.1904762 10.3809524,12.1904762 L5.80952381,12.1904762 C5.20380952,12.1904762 4.62171429,12.4304762 4.19352381,12.8601905 C3.76457143,13.288381 3.52380952,13.8697143 3.52380952,14.4761905 L3.52380952,16 L2,16 L2,14.4761905 C2,13.4659048 2.40152381,12.4967619 3.11542857,11.7820952 C3.83009524,11.0674286 4.7992381,10.6666667 5.80952381,10.6666667 L10.3809524,10.6666667 C11.3912381,10.6666667 12.360381,11.0674286 13.0742857,11.7820952 C13.7897143,12.4967619 14.1904762,13.4659048 14.1904762,14.4761905 L14.1904762,16 Z" id="Fill-1" fill="#666666"></path>
    </g>
</svg>